# xmcd
#
# Track frame offsets:
#	150
#	14968
#	27315
#	51692
#	72037
#	96384
#	112142
#	131215
#	150841
#	165984
#	183318
#	206527
#	216661
#	239067
#	255317
#	279500
#
# Disc length: 4008 seconds
#
# Revision: 0
# Processed by: cddbd v1.5.2PL0 Copyright (c) Steve Scherf et al.
# Submitted via: audiograbber 1.83.01
#
DISCID=f50fa610
DTITLE=MC Вспышкин - Золотые Хиты 2005
DYEAR=1900
DGENRE=
TTITLE0=Диалоги о животных (feat. X-Mode)
TTITLE1=Эффект достигнут
TTITLE2=Davai, davai (feat. DJ Aligator)
TTITLE3=Колбасный цех 3 (Шишки)
TTITLE4=Бессонница
TTITLE5=Дискотека (RDV DJ remix)
TTITLE6=Диарея (nikesclub mix)
TTITLE7=Колбасный цех 2
TTITLE8=Sex (slim line rmx)
TTITLE9=I'm back (Slim line Вспышка 2005)
TTITLE10=Новогодняя (Меня прет)
TTITLE11=Зенит чемпион
TTITLE12=КПП
TTITLE13=Хорошо
TTITLE14=Колбасный цех 3 (Nikiforovna rmx)
TTITLE15=Le Шаурма
EXTD=
EXTT0=
EXTT1=
EXTT2=
EXTT3=
EXTT4=
EXTT5=
EXTT6=
EXTT7=
EXTT8=
EXTT9=
EXTT10=
EXTT11=
EXTT12=
EXTT13=
EXTT14=
EXTT15=
PLAYORDER=
